# xmcd
#
# Track frame offsets: 
#        183
#        18118
#        29345
#
# Disc length: 606 seconds
#
# Revision: 2
# Processed by: cddbd v1.5.2PL0 Copyright (c) Steve Scherf et al.
# Submitted via: ExactAudioCopy v0.95b4
#
DISCID=16025c03
DTITLE=Sidi Bou Said - Twilight Eyes
DYEAR=1993
DGENRE=Rock
TTITLE0=Twilight Eyes
TTITLE1=Buzz
TTITLE2=Faster
EXTD=Silvertone Records
EXTT0=
EXTT1=
EXTT2=
PLAYORDER=
